<?xml version="1.0" ?><svg width="120px" height="120px" viewBox="0 0 120 120" id="Layer_1" style="enable-background:new 0 0 120 120;" version="1.1" xml:space="preserve" xmlns="http://www.w3.org/2000/svg" xmlns:xlink="http://www.w3.org/1999/xlink"><style type="text/css">
	.st0{fill:#FFB562;}
	.st1{fill:#3F3F3F;}
	.st2{fill:#438DFF;}
	.st3{fill:#3D81E2;}
</style><g><g><ellipse class="st0" cx="20.1" cy="65" rx="6.4" ry="6.4"/><ellipse class="st0" cx="99.9" cy="65" rx="6.4" ry="6.4"/></g><path class="st0" d="M94.1,53.1C93.6,34.8,78.5,20,60,20c-18.5,0-33.5,14.7-34.1,33.1h-4C22.5,32.6,39.3,16,60,16   c20.7,0,37.5,16.5,38.1,37.1H94.1z"/><g><path class="st1" d="M69.4,101.8c-2.4,0-4-0.1-4.2-0.1l0.2-2.2c0.2,0,23,1.7,25.8-7.7c3-10.5,1.5-21.5,1.5-21.6l2.2-0.3    c0.1,0.4,1.6,11.6-1.6,22.5C90.7,100.7,76.6,101.8,69.4,101.8z"/></g><path class="st0" d="M70.4,104H60.2c-0.9,0-1.6-0.7-1.6-1.6v-4c0-0.9,0.7-1.6,1.6-1.6h10.2c0.9,0,1.6,0.7,1.6,1.6v4   C72,103.3,71.3,104,70.4,104z"/><g><path class="st2" d="M28.5,51h-7.1c-2.2,0-4,2-4,4.5v17.9c0,2.5,1.8,4.5,4,4.5h7.1c1.5,0,2.8-1.4,2.8-3.1V54    C31.2,52.3,30,51,28.5,51z"/><path class="st2" d="M98.7,51h-7.1c-1.5,0-2.8,1.4-2.8,3.1v20.6c0,1.7,1.2,3.1,2.8,3.1h7.1c2.2,0,4-2,4-4.5v-18    C102.6,52.9,100.8,51,98.7,51z"/></g><g><path class="st2" d="M68.4,70.8l-1.7,1.7c-2.6,2.6-5.2,4.3-7.3,2.2L47.2,62.5c-2.2-2.2-0.5-4.7,2.2-7.3l1.7-1.7l-8.3-8.3l-2.4,2.4    c-4.3,4.3-4.3,11.1,0,15.3L59,81.5c4.3,4.3,11.1,4.3,15.3,0l2.4-2.4L68.4,70.8z"/><g><path class="st3" d="M52.5,52.7l-8.8-8.8c-0.8-0.8-2.1-0.8-2.9,0l-1.5,1.5c-0.8,0.8-0.8,2.1,0,2.9l8.8,8.8c0.8,0.8,2.1,0.8,2.9,0     l1.5-1.5C53.3,54.9,53.3,53.6,52.5,52.7z"/><path class="st3" d="M78,78.2l-8.8-8.8c-0.8-0.8-2.1-0.8-2.9,0l-1.5,1.5c-0.8,0.8-0.8,2.1,0,2.9l8.8,8.8c0.8,0.8,2.1,0.8,2.9,0     l1.5-1.5C78.8,80.3,78.8,79,78,78.2z"/></g><g><path class="st2" d="M58.9,54.3c-0.2-0.2-0.4-0.5-0.4-0.7c-0.2-0.9,0.3-1.6,1.2-1.9c3-0.7,6,0.2,8.1,2.3s3,5.2,2.3,8.1     c-0.2,0.9-1,1.3-1.9,1.2c-0.9-0.2-1.3-1-1.2-1.9c0.4-1.9-0.1-3.9-1.5-5.3c-1.4-1.4-3.3-2-5.3-1.5C59.8,54.8,59.3,54.6,58.9,54.3z     "/><path class="st2" d="M57.6,48.2c-0.2-0.2-0.4-0.5-0.4-0.7c-0.2-0.9,0.3-1.6,1.2-1.9c5.1-1.2,10.3,0.3,13.9,4     c3.7,3.7,5.2,8.8,4,13.9c-0.2,0.9-1,1.4-1.9,1.2c-0.9-0.2-1.4-1-1.2-1.9c0.9-4-0.3-8.1-3.1-11s-7-4.1-11-3.1     C58.5,48.7,58,48.6,57.6,48.2z"/><path class="st2" d="M56.3,42.1c-0.2-0.2-0.4-0.5-0.4-0.7c-0.2-0.9,0.3-1.6,1.2-1.9c7.1-1.6,14.5,0.5,19.7,5.6     c5.2,5.2,7.3,12.5,5.6,19.7c-0.2,0.9-1,1.4-1.9,1.2c-0.9-0.2-1.4-1-1.2-1.9c1.4-6.1-0.4-12.4-4.8-16.7     c-4.4-4.4-10.7-6.2-16.7-4.8C57.2,42.7,56.6,42.5,56.3,42.1z"/></g></g></g></svg>