<?xml version="1.0" ?><svg width="64px" height="64px" viewBox="0 0 64 64" style="enable-background:new 0 0 64 64;" version="1.1" xml:space="preserve" xmlns="http://www.w3.org/2000/svg" xmlns:xlink="http://www.w3.org/1999/xlink"><style type="text/css">
	.st0{fill:#FFEEA9;}
	.st1{fill:#D32436;}
	.st2{fill:#8DD1D3;}
	.st3{fill:#330D00;}
	.st4{fill:none;stroke:#330D00;stroke-linecap:round;stroke-linejoin:round;stroke-miterlimit:10;}
</style><g id="_x34_0-Id_Card"/><g id="_x33_9-Formula"/><g id="_x33_8-Elbow"/><g id="_x33_7-Diploma"/><g id="_x33_6-Laptop"/><g id="_x33_5-Brush"/><g id="_x33_4-Baseball"/><g id="_x33_3-Student"/><g id="_x33_2-Highlighter"/><g id="_x33_1-Ruler"/><g id="_x33_0-Caliper"/><g id="_x32_9-Ruler_Elbow"/><g id="_x32_8-Abacus"/><g id="_x32_7-Id_Card"/><g id="_x32_6-Eraser"/><g id="_x32_5-Pencil"/><g id="_x32_4-Ink"/><g id="_x32_3-Graduation_Cap"/><g id="_x32_2-_Sling_Bag"/><g id="_x32_1-Rugby_Ball"/><g id="_x32_0-Clock"/><g id="_x31_9-Certificate"/><g id="_x31_8-Idea"/><g id="_x31_7-Bookshelf"/><g id="_x31_6-Formula"/><g id="_x31_5-Bell"/><g id="_x31_4-Magnifying_Glass"/><g id="_x31_3-Calculator"/><g id="_x31_2-Eyeglasses"/><g id="_x31_1-Bus"/><g id="_x31_0-Trophy"/><g id="_x39_-Globe"/><g id="_x38_-Basket_Ball"/><g id="_x37_-Pen"/><g id="_x36_-Board"/><g id="_x35_-Bag"/><g id="_x34_-Exam"/><g id="_x33_-Book"/><g id="_x32_-Ruler"><g><g><rect class="st2" height="16.5" transform="matrix(-0.5304 0.8477 -0.8477 -0.5304 76.1016 21.8478)" width="62.5" x="0.7" y="23.7"/></g><g><path class="st3" d="M56.2,8.9l-14-8.8C41.9,0,41.6,0,41.3,0c-0.3,0.1-0.5,0.2-0.7,0.5l-33.2,53c-0.3,0.5-0.2,1.2,0.4,1.5l14,8.8     c0.2,0.1,0.4,0.2,0.6,0.2c0.1,0,0.2,0,0.2,0c0.3-0.1,0.5-0.2,0.7-0.5l4.7-7.6c0,0,0,0,0,0c0,0,0,0,0,0l2.4-3.8c0,0,0,0,0,0     c0,0,0,0,0,0l7.1-11.4c0,0,0,0,0,0c0,0,0,0,0,0l7.1-11.4c0,0,0,0,0,0c0,0,0,0,0,0l2.4-3.8c0,0,0,0,0,0c0,0,0,0,0,0l4.7-7.6     c0,0,0,0,0,0c0,0,0,0,0,0l2.4-3.8c0,0,0,0,0,0c0,0,0,0,0,0l2.4-3.8C56.9,10,56.7,9.3,56.2,8.9z M22.1,61.4L9.9,53.8l32-51.1     l12.2,7.6l-1.2,1.9l-5.3-3.3C47,8.5,46.3,8.6,46,9.2c-0.3,0.5-0.2,1.2,0.4,1.5l5.3,3.3l-1.2,1.9l-9-5.6C41,10,40.3,10.1,40,10.6     c-0.3,0.5-0.2,1.2,0.4,1.5l9,5.6l-1.2,1.9l-5.3-3.3c-0.5-0.3-1.2-0.2-1.5,0.4c-0.3,0.5-0.2,1.2,0.4,1.5l5.3,3.3l-1.2,1.9l-9-5.6     c-0.5-0.3-1.2-0.2-1.5,0.4c-0.3,0.5-0.2,1.2,0.4,1.5l9,5.6l-1.2,1.9l-5.3-3.3c-0.5-0.3-1.2-0.2-1.5,0.4c-0.3,0.5-0.2,1.2,0.4,1.5     l5.3,3.3L41,31.1l-9-5.6c-0.5-0.3-1.2-0.2-1.5,0.4c-0.3,0.5-0.2,1.2,0.4,1.5l9,5.6l-1.2,1.9l-5.3-3.3c-0.5-0.3-1.2-0.2-1.5,0.4     c-0.3,0.5-0.2,1.2,0.4,1.5l5.3,3.3l-1.2,1.9l-9-5.6c-0.5-0.3-1.2-0.2-1.5,0.4c-0.3,0.5-0.2,1.2,0.4,1.5l9,5.6l-1.2,1.9l-5.3-3.3     c-0.5-0.3-1.2-0.2-1.5,0.4c-0.3,0.5-0.2,1.2,0.4,1.5l5.3,3.3l-1.2,1.9l-9-5.6c-0.5-0.3-1.2-0.2-1.5,0.4c-0.3,0.5-0.2,1.2,0.4,1.5     l9,5.6L29.2,50l-5.3-3.3c-0.5-0.3-1.2-0.2-1.5,0.4c-0.3,0.5-0.2,1.2,0.4,1.5l5.3,3.3l-1.2,1.9l-9-5.6c-0.5-0.3-1.2-0.2-1.5,0.4     C16,49,16.1,49.7,16.6,50l9,5.6l-1.2,1.9l-5.3-3.3c-0.5-0.3-1.2-0.2-1.5,0.4c-0.3,0.5-0.2,1.2,0.4,1.5l5.3,3.3L22.1,61.4z"/></g></g></g><g id="_x31_-Building"/></svg>