<?xml version="1.0" ?><svg width="120px" height="120px" viewBox="0 0 120 120" id="Layer_1" style="enable-background:new 0 0 120 120;" version="1.1" xml:space="preserve" xmlns="http://www.w3.org/2000/svg" xmlns:xlink="http://www.w3.org/1999/xlink"><style type="text/css">
	.st0{fill:#F5C0C0;}
	.st1{fill:#FF7171;}
	.st2{fill:#FFFFFF;}
</style><g><path class="st0" d="M58.5,43.2C59,55.8,69.2,66.2,81.7,67.2c3.5,0.2,7-0.2,10.2-1.2c1.7-0.6,8,2.6,11.6,4.4c0.9,0.4,2-0.4,1.6-1.4   c-1.3-3.5-3.2-9.2-2.3-10.2c4.3-4.9,6.8-11.5,6.3-18.7c-0.9-12.6-11.4-22.8-24.1-23.4C70.1,15.9,57.8,28.2,58.5,43.2z"/><path class="st1" d="M82.2,64.8c-0.8,17.8-15.1,32.5-32.8,33.9c-5,0.3-9.8-0.3-14.4-1.7c-2.3-0.8-11.2,3.6-16.4,6.2   c-1.2,0.6-2.8-0.6-2.2-2c1.9-5,4.5-12.9,3.3-14.4c-6.1-6.9-9.5-16.2-8.9-26.4C12.1,42.7,27,28.3,44.8,27.5   C65.8,26.4,83.1,43.8,82.2,64.8z"/><g><path class="st2" d="M37.4,53.4h18.4c1.2,0,2.3-1.1,2.3-2.3s-1.1-2.3-2.3-2.3H37.4c-1.2,0-2.3,1.1-2.3,2.3    C34.9,52.3,36,53.4,37.4,53.4z"/><path class="st2" d="M55.8,72.6H37.4c-1.2,0-2.3,1.1-2.3,2.3s1.1,2.3,2.3,2.3h18.4c1.2,0,2.3-1.1,2.3-2.3    C58.2,73.7,57.1,72.6,55.8,72.6z"/><path class="st2" d="M65.2,60.6H27.9c-1.2,0-2.3,1.1-2.3,2.3s1.1,2.3,2.3,2.3H65c1.2,0,2.3-1.1,2.3-2.3    C67.5,61.7,66.4,60.6,65.2,60.6z"/></g></g></svg>