<?xml version="1.0" ?><svg width="64px" height="64px" viewBox="0 0 64 64" style="enable-background:new 0 0 64 64;" version="1.1" xml:space="preserve" xmlns="http://www.w3.org/2000/svg" xmlns:xlink="http://www.w3.org/1999/xlink"><style type="text/css">
	.st0{fill:#FFEEA9;}
	.st1{fill:#D32436;}
	.st2{fill:#8DD1D3;}
	.st3{fill:#330D00;}
	.st4{fill:none;stroke:#330D00;stroke-linecap:round;stroke-linejoin:round;stroke-miterlimit:10;}
</style><g id="_x34_0-Id_Card"/><g id="_x33_9-Formula"/><g id="_x33_8-Elbow"/><g id="_x33_7-Diploma"/><g id="_x33_6-Laptop"/><g id="_x33_5-Brush"/><g id="_x33_4-Baseball"/><g id="_x33_3-Student"/><g id="_x33_2-Highlighter"/><g id="_x33_1-Ruler"/><g id="_x33_0-Caliper"/><g id="_x32_9-Ruler_Elbow"/><g id="_x32_8-Abacus"/><g id="_x32_7-Id_Card"/><g id="_x32_6-Eraser"/><g id="_x32_5-Pencil"/><g id="_x32_4-Ink"/><g id="_x32_3-Graduation_Cap"/><g id="_x32_2-_Sling_Bag"/><g id="_x32_1-Rugby_Ball"/><g id="_x32_0-Clock"/><g id="_x31_9-Certificate"/><g id="_x31_8-Idea"/><g id="_x31_7-Bookshelf"/><g id="_x31_6-Formula"/><g id="_x31_5-Bell"/><g id="_x31_4-Magnifying_Glass"/><g id="_x31_3-Calculator"/><g id="_x31_2-Eyeglasses"/><g id="_x31_1-Bus"/><g id="_x31_0-Trophy"/><g id="_x39_-Globe"/><g id="_x38_-Basket_Ball"/><g id="_x37_-Pen"><g><g><polygon class="st0" points="40.5,6.1 49.1,11.5 22.2,54.5 11.6,62.9 13.6,49.1    "/></g><g><rect class="st1" height="5.1" transform="matrix(0.5307 -0.8476 0.8476 0.5307 17.238 42.4917)" width="7.6" x="43.2" y="3.1"/></g><g><path class="st3" d="M52.9,15.6l-3.6-2.3l0.8-1.2c0.3-0.5,0.2-1.2-0.4-1.5l-1.1-0.7l3.5-5.5c0.3-0.5,0.2-1.2-0.4-1.5l-4.3-2.7     C47.2,0,46.9,0,46.6,0c-0.3,0.1-0.5,0.2-0.7,0.5L42.5,6l-1.3-0.8C40.9,5,40.6,5,40.3,5.1c-0.3,0.1-0.5,0.2-0.7,0.5l-26.9,43     c-0.1,0.1-0.1,0.3-0.2,0.4l-2,13.7c-0.1,0.4,0.2,0.9,0.5,1.1c0.2,0.1,0.4,0.1,0.6,0.1c0.2,0,0.5-0.1,0.7-0.2l10.6-8.4     c0.1-0.1,0.2-0.2,0.3-0.3l25-39.9l2.7,1.7L42,31c-0.3,0.5-0.2,1.2,0.4,1.5c0.2,0.1,0.4,0.2,0.6,0.2c0.4,0,0.7-0.2,0.9-0.5     l9.4-15.1C53.6,16.6,53.5,15.9,52.9,15.6z M47.2,2.6l2.4,1.5l-2.9,4.6l-2.4-1.5L47.2,2.6z M21.4,53.8l-8.2,6.5l1.5-10.8L40.9,7.7     l1.3,0.8c0,0,0,0,0,0l4.3,2.7c0,0,0,0,0,0l1.1,0.7L21.4,53.8z"/></g></g></g><g id="_x36_-Board"/><g id="_x35_-Bag"/><g id="_x34_-Exam"/><g id="_x33_-Book"/><g id="_x32_-Ruler"/><g id="_x31_-Building"/></svg>